<?xml version="1.0" encoding="UTF-8" standalone="no"?>
<!-- Created with Inkscape (http://www.inkscape.org/) -->

<svg
   xmlns:dc="http://purl.org/dc/elements/1.1/"
   xmlns:cc="http://creativecommons.org/ns#"
   xmlns:rdf="http://www.w3.org/1999/02/22-rdf-syntax-ns#"
   xmlns:svg="http://www.w3.org/2000/svg"
   xmlns="http://www.w3.org/2000/svg"
   xmlns:sodipodi="http://sodipodi.sourceforge.net/DTD/sodipodi-0.dtd"
   xmlns:inkscape="http://www.inkscape.org/namespaces/inkscape"
   width="1280"
   height="1280"
   id="svg2"
   version="1.1"
   inkscape:version="0.48.5 r10040"
   sodipodi:docname="light.svg">
  <defs
     id="defs4" />
  <sodipodi:namedview
     id="base"
     pagecolor="#ffffff"
     bordercolor="#666666"
     borderopacity="1.0"
     inkscape:pageopacity="0.0"
     inkscape:pageshadow="2"
     inkscape:zoom="0.98994949"
     inkscape:cx="461.50619"
     inkscape:cy="723.96906"
     inkscape:document-units="px"
     inkscape:current-layer="layer1"
     showgrid="false"
     inkscape:window-width="2880"
     inkscape:window-height="1699"
     inkscape:window-x="-4"
     inkscape:window-y="65"
     inkscape:window-maximized="1" />
  <metadata
     id="metadata7">
    <rdf:RDF>
      <cc:Work
         rdf:about="">
        <dc:format>image/svg+xml</dc:format>
        <dc:type
           rdf:resource="http://purl.org/dc/dcmitype/StillImage" />
        <dc:title></dc:title>
      </cc:Work>
    </rdf:RDF>
  </metadata>
  <g
     inkscape:label="Layer 1"
     inkscape:groupmode="layer"
     id="layer1"
     transform="translate(0,227.63785)">
    <path
       sodipodi:type="arc"
       style="fill:#cbdccc;fill-opacity:1;stroke:none"
       id="path2985"
       sodipodi:cx="300.71429"
       sodipodi:cy="915.71429"
       sodipodi:rx="670.71429"
       sodipodi:ry="690"
       d="m 971.42859,915.71429 a 670.71429,690 0 1 1 -1341.42859,0 670.71429,690 0 1 1 1341.42859,0 z"
       transform="matrix(0.95420659,0,0,0.92753623,353.05643,-436.99603)" />
    <g
       id="layer1-9"
       transform="translate(508.05594,513.66332)">
      <path
         id="path5285"
         style="fill:#000000"
         d="m 257.69512,165.98019 c -33.57553,-69.996379 -33.98125,-71.084629 -20.9966,-56.29326 5.7155,6.51108 18.02395,30.28379 27.35235,52.82825 9.32842,22.545 19.407,44.01967 22.3976,47.72188 2.99008,3.7022 3.95683,8.2111 2.14801,10.01939 -1.80885,1.80884 -15.7143,-22.61576 -30.90136,-54.27626 z m -122.09456,36.2048 c -6.2966,-31.56753 -9.52916,-83.08248 -4.72443,-75.28028 2.68421,4.35834 6.31087,22.38439 8.05896,40.05809 1.74808,17.6737 4.6996,36.09754 6.55863,40.94189 1.85902,4.84436 1.04546,8.80806 -1.80779,8.80806 -2.85326,0 -6.49154,-6.5375 -8.08537,-14.52776 z M 10.389695,172.44848 c 0,-11.54456 17.747121,-75.715559 22.092241,-79.882129 3.775106,-3.61978 4.609265,-1.95622 2.650394,5.28282 -1.5727,5.811119 -5.808466,24.343269 -9.412946,41.182799 -3.604465,16.83954 -8.528058,31.838 -10.941247,33.32988 -2.413734,1.49134 -4.388442,1.53043 -4.388442,0.0866 z m -73.933139,-64.76902 c -0.03381,-7.735109 19.358915,-31.804199 22.818097,-28.320159 1.442217,1.45277 -3.095736,9.77321 -10.084908,18.48987 -6.988654,8.716669 -12.718934,13.140509 -12.733189,9.830289 z M 369.6218,86.608391 c -13.075,-10.4843 -32.912,-24.89638 -44.08254,-32.02714 -21.50214,-13.72583 -23.6512,-23.225407 -2.55529,-11.29468 21.33574,12.06704 77.75102,54.36873 78.05003,58.524729 0.55576,7.73141 -7.93692,3.62138 -31.4122,-15.202909 z M 56.442722,73.592561 C 30.963129,67.592851 10.326827,56.903581 -1.936194,43.353141 -10.768021,33.594181 -11.06122,29.13336 -5.359993,-8.6953646 -1.929864,-31.451126 8.013471,-84.540357 16.736477,-126.67088 25.46,-168.80142 32.582834,-217.53547 32.565933,-234.9688 c -0.0169,-17.43332 2.50829,-34.78793 5.611419,-38.56572 13.938733,-16.96633 -37.257128,-37.08175 -68.604879,-26.95563 -9.374903,3.02812 -26.315336,16.03761 -37.645945,28.91032 -22.061598,25.06331 -27.193328,27.98471 -27.193328,15.47974 0,-4.35834 -3.56592,-7.92425 -7.92424,-7.92425 -9.8398,0 -9.85353,-2.07667 -0.13841,-20.86351 19.72078,-38.13619 77.60311,-68.91287 114.505754,-60.88402 18.238418,3.96792 62.607289,32.58498 62.607289,40.38032 0,2.41319 4.989626,4.38739 11.087595,4.38739 6.097955,0 17.804692,7.19098 26.014742,15.97949 8.21004,8.78904 40.66243,33.2829 72.11689,54.43111 149.80879,100.72445 157.22957,106.96401 156.53012,131.625811 -0.878,30.981654 -29.9906,84.452827 -61.58294,113.109508 C 225.92525,61.332181 122.3877,89.120891 56.442722,73.592561 z M 168.87444,49.827251 c 10.16945,-4.17872 12.54671,-6.14816 5.28283,-4.37735 -7.26389,1.77133 -38.16842,4.99121 -68.67673,7.15611 l -55.46966,3.93571 50.18683,0.44111 c 32.49784,0.2858 56.70374,-2.23622 68.67673,-7.15558 z M 43.07717,49.336471 c -3.813667,-1.52621 -8.370104,-1.33867 -10.125598,0.41681 -1.75548,1.75549 1.365081,3.00435 6.933711,2.77507 6.154494,-0.25358 7.405992,-1.50561 3.191887,-3.19188 z M 199.49158,24.727486 c 59.38055,-20.2733746 84.79727,-43.427991 104.12079,-94.853118 6.86926,-18.281221 7.9179,-26.941887 3.76507,-31.094708 -5.9231,-5.92311 -106.80605,-13.46275 -106.80605,-7.98235 0,1.68257 4.95583,11.458981 11.01311,21.725083 7.6807,13.017411 10.00091,23.274542 7.66749,33.897779 C 211.5544,-18.531979 157.5618,7.6639634 119.15038,-5.0132316 97.386199,-12.196287 76.734579,-37.940026 80.66869,-52.983923 83.324895,-63.142803 83.146875,-63.140157 68.62596,-52.800611 49.867179,-39.442997 21.850774,-7.6277106 14.349695,8.8346294 10.090154,18.183124 10.170986,23.142113 14.654515,27.626174 33.296017,46.267681 141.36571,44.572951 199.49158,24.727486 z M 75.434998,-68.017795 C 139.7814,-111.93708 208.8628,-131.02552 272.16582,-122.37805 c 20.18727,2.75763 37.44784,4.35462 38.35755,3.549 1.95781,-1.73383 -65.6296,-52.66449 -98.83163,-74.4741 -12.76965,-8.3886 -41.00529,-26.75117 -62.7457,-40.8056 l -39.52822,-25.55408 -24.420378,9.12714 c -33.673778,12.5858 -35.837103,14.96994 -39.648124,43.69952 -1.846353,13.91919 -9.117101,50.79859 -16.157002,81.95459 -7.040418,31.155971 -14.274188,70.243605 -16.076155,86.860722 L 9.840809,-7.8073266 29.925579,-29.236049 c 11.046918,-11.785978 31.526315,-29.237785 45.509419,-38.781746 z m -38.52183,-3.62348 C 37.068477,-93.493159 57.057109,-212.13907 61.22526,-215.9501 c 7.13762,-6.52587 -13.244044,148.539312 -20.47465,155.769904 -2.170705,2.170719 -3.897664,-2.986901 -3.837442,-11.461079 z M 194.7999,-29.112959 c 15.92192,-16.508826 18.09685,-39.394551 5.66795,-59.64257 -9.63694,-15.700021 -12.57312,-17.188721 -27.78819,-14.090871 -9.35641,1.90499 -31.87023,10.274041 -50.02994,18.597659 -29.985319,13.743799 -33.017655,16.614484 -33.017655,31.260057 0,9.354825 4.673184,20.799017 11.129855,27.255685 9.65859,9.658581 15.9478,10.857782 47.5729,9.070601 27.47228,-1.55209 38.91011,-4.61719 46.46508,-12.450561 z m 121.832,-36.805443 c 0,-2.905549 -2.30437,-1.716919 -5.12118,2.641419 -2.8168,4.358325 -5.12117,10.301503 -5.12117,13.207066 0,2.90555 2.30437,1.71692 5.12117,-2.641419 2.81681,-4.358324 5.12118,-10.301502 5.12118,-13.207066 z M 85.770848,-261.23024 c 14.17752,-5.96115 14.670932,-7.07793 6.665869,-15.08306 -7.477317,-7.47731 -10.926993,-7.71768 -25.535587,-1.77978 -10.830857,4.40218 -17.518905,11.17693 -18.643098,18.88456 -1.890724,12.96565 2.421128,12.73321 37.512816,-2.02172 z M -85.19721,-277.82946 c -7.67648,-9.24917 -12.57788,-5.63361 -8.11813,5.98813 1.79141,4.66738 5.76621,6.93582 8.83343,5.04034 3.82951,-2.36723 3.60551,-5.82172 -0.7153,-11.02847 z m 18.106877,-20.91946 c -1.591197,-4.14596 -4.875519,-7.53806 -7.298747,-7.53806 -7.11597,0 -10.60158,8.94646 -7.07107,18.14808 2.461804,6.41494 5.012883,7.09378 10.268768,2.73175 3.846411,-3.19188 5.6917,-9.19582 4.101049,-13.34177 z m 128.929448,-2.50037 c -3.545294,-5.67639 -8.250709,-10.32053 -10.457343,-10.32053 -6.149215,0 -4.76617,12.9815 2.116294,19.86396 9.346899,9.3469 15.640865,2.14535 8.341049,-9.54343 z m -112.967394,-2.8337 c 4.412217,-1.69315 6.787377,-6.29765 5.277545,-10.23178 -3.410596,-8.88835 -17.719131,-4.08257 -17.719131,5.95164 0,8.26391 1.086683,8.63741 12.441586,4.28014 z m 89.34366,-18.75404 c -3.291202,-3.29119 -10.304149,-4.31025 -15.584326,-2.26421 -9.150916,3.54636 -9.118684,4.07465 0.682015,11.28729 12.077594,8.88835 24.994094,1.0687 14.902311,-9.02308 z m -59.270119,0.22981 c 5.058822,-9.45255 4.525268,-10.77115 -3.715416,-9.18419 -5.292863,1.01906 -10.418782,5.98596 -11.39135,11.03741 -2.462853,12.78655 7.955929,11.50863 15.106766,-1.85322 z m 33.35469,-2.16965 c 2.197127,-5.725 -0.578458,-7.92424 -10.000379,-7.92424 -8.070044,0 -13.041187,3.02071 -13.041187,7.92424 0,4.35832 4.500443,7.92423 10.000393,7.92423 5.500469,0 11.368639,-3.56591 13.041173,-7.92423 z M 409.24298,-26.50324 c -17.43332,-5.612469 -35.71666,-10.239167 -40.63021,-10.281956 -8.74307,-0.07607 -18.02552,-9.218013 -13.72583,-13.517697 3.55746,-3.557461 99.26005,25.657095 99.26005,30.300175 0,6.269127 -9.51489,4.89136 -44.90401,-6.500522 z m -23.77271,-79.03634 c 0,-2.90555 11.88636,-5.28283 26.41412,-5.28283 14.52777,0 26.41413,2.37728 26.41413,5.28283 0,2.90554 -11.88636,5.28282 -26.41413,5.28282 -14.52776,0 -26.41412,-2.37728 -26.41412,-5.28282 z"
         inkscape:connector-curvature="0" />
    </g>
  </g>
</svg>
